<?xml version="1.0" encoding="UTF-8"?>
<svg id="Capa_3" xmlns="http://www.w3.org/2000/svg" xmlns:xlink="http://www.w3.org/1999/xlink" version="1.1" viewBox="0 0 1024 1024">
  <!-- Generator: Adobe Illustrator 30.0.0, SVG Export Plug-In . SVG Version: 2.1.1 Build 123)  -->
  <defs>
    <style>
      .st0 {
        fill: url(#Degradado_sin_nombre_31);
      }
    </style>
    <linearGradient id="Degradado_sin_nombre_31" data-name="Degradado sin nombre 31" x1="55.37" y1="514" x2="968.63" y2="514" gradientTransform="translate(0 1026) scale(1 -1)" gradientUnits="userSpaceOnUse">
      <stop offset="0" stop-color="#00c7ff"/>
      <stop offset="1" stop-color="#0064e6"/>
    </linearGradient>
  </defs>
  <path class="st0" d="M967.25,370.05c-.97-1.06-2.31-1.57-3.62-1.57s-2.54.48-3.51,1.43l-34.74,32.28v-49.97c0-1.45-.48-2.71-1.48-3.76-1-1.03-2.22-1.54-3.71-1.54s-2.82.51-3.79,1.54c-1,1.06-1.51,2.31-1.51,3.76v85.13c0,1.45.51,2.71,1.51,3.74.97,1.06,2.25,1.57,3.79,1.57s2.71-.51,3.71-1.57c1-1.03,1.48-2.28,1.48-3.74v-20.88c4.93-4.62,39.64-37.19,41.84-39.53,1.88-1.91,1.88-4.96.03-6.9h0ZM966.51,433.33l-22.39-20.79c-2-1.88-5.08-1.83-7.02.09-1,1.03-1.51,2.31-1.51,3.62s.51,2.68,1.57,3.68l22.16,21.02c1.14,1.11,2.42,1.68,3.88,1.71,1.45.03,2.71-.51,3.79-1.63,1.06-1.11,1.63-2.31,1.63-3.59.06-1.43-.66-2.79-2.11-4.11h0ZM958.13,532.32c-6.96-12.12-16.68-21.73-28.89-28.58-12.18-6.84-25.5-10.3-39.61-10.3s-27.32,3.51-39.33,10.41c-11.98,6.93-21.56,16.6-28.43,28.78-6.9,12.18-10.38,25.61-10.38,39.98s3.54,27.15,10.47,39.19c6.96,12.03,16.66,21.59,28.78,28.46,12.12,6.82,25.41,10.3,39.53,10.3s27.38-3.51,39.41-10.41c12.06-6.93,21.67-16.57,28.58-28.66,6.87-12.12,10.35-25.44,10.35-39.58s-3.51-27.49-10.47-39.58h-.01ZM932.06,615.2c-11.46,11.32-25.58,17.05-41.92,17.05s-30.46-5.87-42.01-17.45c-11.52-11.58-17.37-25.95-17.37-42.69s5.68-31.17,16.88-42.81c11.21-11.64,25.38-17.54,42.09-17.54s30.49,5.87,42.09,17.45c11.61,11.58,17.51,25.98,17.51,42.78s-5.82,31.88-17.28,43.21h0ZM805.21,367.71c-17.03,0-30.83,13.8-30.83,30.83v38.5c0,1.54.63,2.97,1.68,3.99,1,1,2.42,1.65,3.96,1.65,3.14,0,5.65-2.54,5.65-5.65v-38.5c0-10.78,8.76-19.51,19.54-19.51s19.51,8.73,19.51,19.51v38.5c0,1.54.63,2.97,1.65,3.99,1.03,1,2.45,1.65,3.99,1.65,3.11,0,5.65-2.54,5.65-5.65v-38.5c0-17.03-13.77-30.83-30.8-30.83v.02ZM728.35,572.99v18.11h45.37c-2.22,12.38-8.07,22.39-17.34,29.72-9.9,7.87-21.93,11.84-35.76,11.84-18.25,0-33.68-6.19-45.8-18.37s-18.28-26.69-18.28-43.09c0-10.52,2.77-20.45,8.21-29.49,5.42-9.04,13.15-16.34,22.9-21.67,9.75-5.36,19.65-8.07,29.37-8.07s19.39,2.05,28.63,6.1c9.24,4.08,17.88,10.04,25.64,17.65l1.45,1.43,13.92-13.66-1.51-1.45c-19.62-18.97-41.87-28.58-66.14-28.58s-44.23,7.81-59.21,23.24c-14.97,15.4-22.56,33.91-22.56,55.01s7.61,39.7,22.64,55.3c15.06,15.63,35.33,23.56,60.32,23.56,21.76,0,39.64-6.7,53.16-19.96s20.59-31.91,20.99-55.53l.06-2.08h-66.08.02ZM676.93,370.13c-1.06-1.08-2.45-1.65-4.16-1.65s-3.11.57-4.16,1.65c-1.06,1.11-1.57,2.51-1.57,4.25v39.01c0,6.53-1.68,11.44-5.02,14.8-3.37,3.34-8.1,5.02-14.2,5.02s-10.72-1.68-14.09-5.02c-3.34-3.37-5.02-8.27-5.02-14.8v-39.01c0-1.74-.51-3.14-1.57-4.25-1.06-1.08-2.45-1.65-4.16-1.65s-2.99.57-4.11,1.65c-1.08,1.11-1.63,2.51-1.63,4.25v39.01c0,9.67,2.68,17.14,8.1,22.47,5.42,5.3,12.89,7.96,22.47,7.96s17.2-2.65,22.59-7.96c5.42-5.33,8.1-12.81,8.1-22.47v-39.01c0-1.74-.51-3.14-1.57-4.25h0ZM605.35,433.33l-22.39-20.79c-2-1.88-5.08-1.83-7.04.09-1,1-1.48,2.31-1.48,3.59s.51,2.68,1.57,3.71l22.13,21.02c1.17,1.11,2.45,1.68,3.91,1.71,1.45.03,2.71-.51,3.76-1.63,1.06-1.11,1.63-2.31,1.65-3.59.03-1.43-.66-2.79-2.11-4.11h0ZM606.09,370.05c-1-1.06-2.31-1.57-3.62-1.57s-2.54.48-3.51,1.43l-34.74,32.28v-49.97c0-1.45-.51-2.71-1.48-3.76-1-1.03-2.22-1.54-3.71-1.54s-2.82.51-3.82,1.54c-.97,1.06-1.48,2.31-1.48,3.76v85.13c0,1.45.51,2.71,1.48,3.74,1,1.06,2.28,1.57,3.82,1.57s2.71-.51,3.71-1.57c.97-1.03,1.48-2.28,1.48-3.74v-20.88c4.93-4.62,39.61-37.19,41.84-39.53,1.85-1.91,1.85-4.96.03-6.9h0ZM495.06,479.25l-177.59-177.47c-18.05-18.05-47.37-18.05-65.42,0l-64.82,64.82c11.95.68,23.21,5.73,31.77,14.29l96.59,96.59c18.99,18.99,18.99,50.05,0,69.04l-96.59,96.59c-8.56,8.56-19.82,13.6-31.77,14.29l64.82,64.82c18.05,18.05,47.37,18.05,65.42,0l177.59-177.47c18.05-18.17,18.05-47.46,0-65.51h0ZM304.1,488.97l-96.59-96.59c-6.45-6.33-14.63-9.5-22.96-9.5s-16.77,3.17-23.1,9.5l-96.59,96.59c-12.66,12.78-12.66,33.28,0,46.06l9.38,9.27,87.21,87.33c6.33,6.33,14.77,9.5,23.1,9.5s16.51-3.17,22.96-9.5l96.59-96.59c12.66-12.78,12.66-33.28,0-46.06h0ZM764.6,404.98v-.06c-.51-20.65-17.37-37.22-38.16-37.22s-38.16,17.11-38.16,38.19,17.08,38.19,38.16,38.19c10.41,0,19.85-4.16,26.72-10.92v3.71c0,1.63.57,2.97,1.63,4.11,1.11,1.11,2.51,1.68,4.19,1.68s2.94-.57,4.02-1.68c1.08-1.14,1.63-2.48,1.63-4.11v-30.97c0-.31,0-.63-.03-.91h0ZM753.16,405.89c0,14.77-11.95,26.75-26.72,26.75s-26.72-11.98-26.72-26.75,11.98-26.72,26.72-26.72,26.55,11.81,26.72,26.38v.34ZM880.7,364.68c-1.03-1.08-2.34-1.63-3.88-1.63h-11.12v-10.84c0-1.45-.51-2.71-1.48-3.76-1-1.03-2.25-1.54-3.71-1.54-1.54,0-2.82.51-3.82,1.54-1,1.06-1.48,2.31-1.48,3.76v5.87c0,2.74-2.22,4.96-4.99,4.96h-1.51c-1.45,0-2.74.54-3.88,1.54-1.11,1.03-1.68,2.34-1.68,3.88s.57,2.74,1.68,3.82c1.14,1.06,2.42,1.6,3.88,1.6h6.5v63.45c0,1.45.48,2.71,1.48,3.74,1,1.06,2.28,1.57,3.82,1.57,1.45,0,2.71-.51,3.71-1.57.97-1.03,1.48-2.28,1.48-3.74v-63.45h11.12c1.54,0,2.85-.51,3.88-1.54,1.03-1,1.54-2.25,1.54-3.74s-.51-2.88-1.54-3.94v.02ZM898.75,376.32c-1-1.06-2.2-1.57-3.68-1.57-1.57,0-2.82.51-3.82,1.57-1,1.03-1.51,2.28-1.51,3.76v57.41c0,1.45.51,2.71,1.51,3.74,1,1.06,2.25,1.57,3.82,1.57,1.48,0,2.68-.51,3.68-1.57,1-1.03,1.48-2.28,1.48-3.74v-57.41c0-1.48-.48-2.74-1.48-3.76ZM895.02,353.96c-2.91,0-5.25,2.34-5.25,5.25s2.34,5.25,5.25,5.25,5.25-2.34,5.25-5.25-2.37-5.25-5.25-5.25Z"/>
</svg>