<?xml version="1.0" encoding="UTF-8"?>
<svg id="Capa_2" data-name="Capa 2" xmlns="http://www.w3.org/2000/svg" xmlns:xlink="http://www.w3.org/1999/xlink" viewBox="0 0 1093.78 1080">
  <defs>
    <style>
      .cls-1 {
        fill: url(#Degradado_sin_nombre_55);
      }
    </style>
    <linearGradient id="Degradado_sin_nombre_55" data-name="Degradado sin nombre 55" x1="0" y1="540" x2="1093.78" y2="540" gradientUnits="userSpaceOnUse">
      <stop offset="0" stop-color="#00c7ff"/>
      <stop offset="1" stop-color="#0064e6"/>
    </linearGradient>
  </defs>
  <path class="cls-1" d="M256.01,828.72l-210.44-210.79-22.63-22.33c-30.58-30.85-30.58-80.37,0-111.17l233.07-233.11c15.29-15.25,35.64-22.9,55.76-22.9s39.86,7.64,55.42,22.9l233.11,233.11c30.54,30.85,30.54,80.37,0,111.17l-233.11,233.11c-15.56,15.25-35.33,22.9-55.42,22.9s-40.47-7.64-55.76-22.9ZM1061.12,619.07l-428.57,428.27c-43.59,43.55-114.29,43.55-157.88,0l-156.44-156.44c28.87-1.67,56.02-13.84,76.68-34.5l233.07-233.11c45.83-45.83,45.83-120.76,0-166.59l-233.07-233.11c-20.65-20.65-47.81-32.82-76.68-34.5L474.67,32.66c43.59-43.55,114.29-43.55,157.88,0l428.57,428.27c43.55,43.55,43.55,114.29,0,158.15Z"/>
</svg>