<?xml version="1.0" encoding="UTF-8"?>
<svg id="Capa_3" xmlns="http://www.w3.org/2000/svg" xmlns:xlink="http://www.w3.org/1999/xlink" version="1.1" viewBox="0 0 414.9 414.9">
  <!-- Generator: Adobe Illustrator 30.0.0, SVG Export Plug-In . SVG Version: 2.1.1 Build 123)  -->
  <defs>
    <style>
      .st0 {
        fill: url(#Degradado_sin_nombre_30);
      }
    </style>
    <linearGradient id="Degradado_sin_nombre_30" data-name="Degradado sin nombre 30" x1="0" y1="194.19" x2="414.91" y2="194.19" gradientUnits="userSpaceOnUse">
      <stop offset="0" stop-color="#00c7ff"/>
      <stop offset="1" stop-color="#0064e6"/>
    </linearGradient>
  </defs>
  <path class="st0" d="M413.52,65.5c-.97-1.06-2.31-1.57-3.62-1.57s-2.54.48-3.51,1.43l-34.74,32.28v-49.97c0-1.45-.48-2.71-1.48-3.76-1-1.03-2.22-1.54-3.71-1.54s-2.82.51-3.79,1.54c-1,1.06-1.51,2.31-1.51,3.76v85.13c0,1.45.51,2.71,1.51,3.74.97,1.06,2.25,1.57,3.79,1.57s2.71-.51,3.71-1.57c1-1.03,1.48-2.28,1.48-3.74v-20.88c4.93-4.62,39.64-37.19,41.84-39.53,1.88-1.91,1.88-4.95.03-6.89ZM412.78,128.78l-22.39-20.79c-2-1.88-5.08-1.83-7.02.09-1,1.03-1.51,2.31-1.51,3.62s.51,2.68,1.57,3.68l22.16,21.02c1.14,1.11,2.42,1.68,3.88,1.71,1.45.03,2.71-.51,3.79-1.63,1.06-1.11,1.63-2.31,1.63-3.59.06-1.43-.66-2.79-2.11-4.11ZM362.67,227.78h0c-6.96-12.13-16.68-21.74-28.89-28.59-12.18-6.84-25.5-10.3-39.61-10.3s-27.32,3.51-39.33,10.41c-11.98,6.93-21.56,16.6-28.43,28.78-6.9,12.18-10.38,25.61-10.38,39.98s3.54,27.15,10.47,39.19c6.96,12.03,16.65,21.59,28.78,28.46,12.12,6.82,25.41,10.3,39.53,10.3s27.38-3.51,39.41-10.41c12.06-6.93,21.67-16.57,28.58-28.66,6.87-12.12,10.35-25.44,10.35-39.58s-3.51-27.49-10.47-39.58ZM336.58,310.65c-11.46,11.32-25.57,17.05-41.91,17.05s-30.46-5.87-42.01-17.45c-11.52-11.58-17.37-25.95-17.37-42.69s5.68-31.17,16.88-42.81c11.21-11.64,25.38-17.54,42.09-17.54s30.49,5.87,42.09,17.45c11.61,11.58,17.51,25.98,17.51,42.78s-5.82,31.88-17.28,43.21ZM210.87,100.44v-.07c-.51-20.65-17.37-37.22-38.16-37.22s-38.16,17.11-38.16,38.19,17.08,38.19,38.16,38.19c10.41,0,19.85-4.16,26.72-10.92v3.71c0,1.63.57,2.97,1.63,4.11,1.11,1.11,2.51,1.68,4.19,1.68s2.94-.57,4.02-1.68c1.08-1.14,1.63-2.48,1.63-4.11v-30.97c0-.31,0-.63-.03-.91ZM199.43,101.34c0,14.77-11.95,26.75-26.72,26.75s-26.72-11.98-26.72-26.75,11.98-26.72,26.72-26.72,26.55,11.81,26.72,26.38v.34ZM132.88,268.45v18.1h45.37c-2.22,12.38-8.07,22.39-17.35,29.72-9.9,7.87-21.93,11.84-35.76,11.84-18.25,0-33.68-6.19-45.8-18.37s-18.28-26.69-18.28-43.09c0-10.52,2.77-20.45,8.21-29.49,5.42-9.04,13.16-16.34,22.91-21.67,9.75-5.36,19.65-8.07,29.37-8.07s19.39,2.05,28.63,6.1c9.23,4.08,17.88,10.04,25.64,17.65l1.45,1.43,13.92-13.66-1.51-1.45c-19.62-18.97-41.87-28.58-66.15-28.58s-44.22,7.81-59.21,23.24c-14.97,15.4-22.56,33.91-22.56,55.01s7.61,39.7,22.64,55.3c15.06,15.63,35.34,23.56,60.32,23.56,21.77,0,39.65-6.7,53.16-19.96,13.52-13.26,20.59-31.91,20.99-55.53l.06-2.08h-66.05ZM51.62,128.78l-22.39-20.79c-2-1.88-5.08-1.83-7.04.09-1,1-1.48,2.31-1.48,3.59s.51,2.68,1.57,3.71l22.13,21.02c1.17,1.11,2.45,1.68,3.91,1.71,1.45.03,2.71-.51,3.76-1.63,1.06-1.11,1.63-2.31,1.65-3.59.03-1.43-.66-2.79-2.11-4.11ZM52.36,65.5c-1-1.06-2.31-1.57-3.62-1.57s-2.54.48-3.51,1.43L10.49,97.64v-49.97c0-1.45-.51-2.71-1.48-3.76-1-1.03-2.22-1.54-3.71-1.54s-2.82.51-3.82,1.54C.51,44.97,0,46.22,0,47.67v85.13c0,1.45.51,2.71,1.48,3.74,1,1.06,2.28,1.57,3.82,1.57s2.71-.51,3.71-1.57c.97-1.03,1.48-2.28,1.48-3.74v-20.88c4.93-4.62,39.61-37.19,41.84-39.53,1.85-1.91,1.85-4.95.03-6.89ZM123.2,65.58c-1.06-1.08-2.45-1.65-4.16-1.65s-3.11.57-4.16,1.65c-1.06,1.11-1.57,2.51-1.57,4.25v39.01c0,6.53-1.68,11.44-5.02,14.8-3.37,3.34-8.1,5.02-14.2,5.02s-10.72-1.68-14.09-5.02c-3.34-3.37-5.02-8.27-5.02-14.8v-39.01c0-1.74-.51-3.14-1.57-4.25-1.06-1.08-2.45-1.65-4.16-1.65s-2.99.57-4.11,1.65c-1.08,1.11-1.63,2.51-1.63,4.25v39.01c0,9.67,2.68,17.14,8.1,22.47,5.42,5.3,12.89,7.96,22.47,7.96s17.2-2.65,22.59-7.96c5.42-5.33,8.1-12.81,8.1-22.47v-39.01c0-1.74-.51-3.14-1.57-4.25ZM251.48,63.14v.02c-17.03,0-30.83,13.8-30.83,30.83v38.5c0,1.54.63,2.97,1.68,3.99,1,1,2.42,1.65,3.96,1.65,3.14,0,5.65-2.54,5.65-5.65v-38.5c0-10.78,8.76-19.51,19.54-19.51s19.51,8.73,19.51,19.51v38.5c0,1.54.63,2.97,1.65,3.99,1.03,1,2.45,1.65,3.99,1.65,3.11,0,5.65-2.54,5.65-5.65v-38.5c0-17.03-13.77-30.83-30.8-30.83ZM326.97,60.11v.02c-1.03-1.08-2.34-1.63-3.88-1.63h-11.12v-10.84c0-1.45-.51-2.71-1.48-3.76-1-1.03-2.25-1.54-3.71-1.54-1.54,0-2.82.51-3.82,1.54-1,1.06-1.48,2.31-1.48,3.76v5.87c0,2.74-2.22,4.96-4.99,4.96h-1.51c-1.45,0-2.74.54-3.88,1.54-1.11,1.03-1.68,2.34-1.68,3.88s.57,2.74,1.68,3.82c1.14,1.06,2.42,1.6,3.88,1.6h6.5v63.45c0,1.45.48,2.71,1.48,3.74,1,1.06,2.28,1.57,3.82,1.57,1.45,0,2.71-.51,3.71-1.57.97-1.03,1.48-2.28,1.48-3.74v-63.45h11.12c1.54,0,2.85-.51,3.88-1.54,1.03-1,1.54-2.25,1.54-3.74s-.51-2.88-1.54-3.94ZM345.02,71.77c-1-1.06-2.2-1.57-3.68-1.57-1.57,0-2.82.51-3.82,1.57-1,1.03-1.51,2.28-1.51,3.76v57.41c0,1.45.51,2.71,1.51,3.74,1,1.06,2.25,1.57,3.82,1.57,1.48,0,2.68-.51,3.68-1.57,1-1.03,1.48-2.28,1.48-3.74v-57.41c0-1.48-.48-2.74-1.48-3.76ZM341.29,49.41c-2.91,0-5.25,2.34-5.25,5.25s2.34,5.25,5.25,5.25,5.25-2.34,5.25-5.25-2.37-5.25-5.25-5.25Z"/>
</svg>